<svg id="Layer_1" data-name="Layer 1" xmlns="http://www.w3.org/2000/svg" xmlns:xlink="http://www.w3.org/1999/xlink" viewBox="0 0 102.27 102.27"><defs><style>.cls-1,.cls-2,.cls-4{fill:none;}.cls-2,.cls-4{stroke:#000;stroke-width:1.2px;}.cls-2{stroke-linecap:round;stroke-linejoin:round;}.cls-3{clip-path:url(#clip-path);}.cls-4{stroke-miterlimit:10;}</style><clipPath id="clip-path" transform="translate(0 0)"><rect class="cls-1" width="102.27" height="102.27"/></clipPath></defs><title>advantage_icon_1</title><line class="cls-2" x1="5.41" y1="29.8" x2="11.46" y2="33.04"/><line class="cls-2" x1="8.17" y1="24.67" x2="13.88" y2="28.48"/><line class="cls-2" x1="16.47" y1="14.62" x2="20.73" y2="19.62"/><line class="cls-2" x1="22.13" y1="10.99" x2="25.57" y2="16.6"/><line class="cls-2" x1="11.49" y1="19.97" x2="16.77" y2="23.88"/><line class="cls-2" x1="27.9" y1="7.5" x2="30.85" y2="13.7"/><line class="cls-2" x1="33.71" y1="5.25" x2="35.78" y2="11.34"/><line class="cls-2" x1="39.28" y1="3.41" x2="40.74" y2="10.12"/><line class="cls-2" x1="45.6" y1="2.05" x2="46.46" y2="8.86"/><g class="cls-3"><line class="cls-2" x1="50.91" y1="8.09" x2="50.91" y2="1.22"/></g><line class="cls-2" x1="96.87" y1="29.8" x2="90.81" y2="33.04"/><line class="cls-2" x1="94.1" y1="24.67" x2="88.39" y2="28.48"/><line class="cls-2" x1="85.8" y1="14.62" x2="81.55" y2="19.62"/><line class="cls-2" x1="80.15" y1="10.99" x2="76.71" y2="16.6"/><line class="cls-2" x1="90.78" y1="19.97" x2="85.5" y2="23.88"/><line class="cls-2" x1="74.37" y1="7.5" x2="71.42" y2="13.7"/><line class="cls-2" x1="68.56" y1="5.25" x2="66.49" y2="11.34"/><line class="cls-2" x1="63" y1="3.41" x2="61.54" y2="10.12"/><line class="cls-2" x1="56.67" y1="2.05" x2="55.81" y2="8.86"/><g class="cls-3"><circle class="cls-2" cx="51.14" cy="51.14" r="50.54"/><path class="cls-2" d="M15.4,51.14a35.73,35.73,0,0,1,71.47,0" transform="translate(0 0)"/><circle class="cls-4" cx="51.14" cy="56.01" r="3.25"/><line class="cls-2" x1="33.49" y1="36.01" x2="48.43" y2="53.3"/></g></svg>