<svg id="Layer_1" data-name="Layer 1" xmlns="http://www.w3.org/2000/svg" xmlns:xlink="http://www.w3.org/1999/xlink" viewBox="0 0 122.08 102.49"><defs><style>.cls-1,.cls-3,.cls-4{fill:none;}.cls-2{clip-path:url(#clip-path);}.cls-3,.cls-4{stroke:#000;stroke-width:1.2px;}.cls-3{stroke-miterlimit:10;}.cls-4{stroke-linecap:round;stroke-linejoin:round;}</style><clipPath id="clip-path" transform="translate(0 0)"><rect class="cls-1" width="122.08" height="102.49"/></clipPath></defs><title>advantage_icon_2</title><g class="cls-2"><polyline class="cls-3" points="55.21 0.6 88.24 0.6 121.28 41.4 61.04 101.64 0.81 41.4 33.84 0.6 61.04 0.6 61.04 101.64"/><polyline class="cls-3" points="61.04 99.7 33.84 41.4 45.5 0.6"/><polyline class="cls-3" points="61.04 99.7 88.24 41.4 76.58 0.6"/><line class="cls-3" x1="0.81" y1="41.4" x2="121.28" y2="41.4"/></g><line class="cls-4" x1="83.68" y1="5.79" x2="88.24" y2="5.79"/><line class="cls-4" x1="86.96" y1="11.04" x2="92.68" y2="11.04"/><line class="cls-4" x1="90.68" y1="17.54" x2="96.68" y2="17.54"/><line class="cls-4" x1="94.68" y1="23.79" x2="100.68" y2="23.79"/><line class="cls-4" x1="98.68" y1="29.79" x2="104.68" y2="29.79"/><line class="cls-4" x1="102.93" y1="35.79" x2="108.93" y2="35.79"/><line class="cls-4" x1="77.39" y1="77.29" x2="81.96" y2="77.29"/><line class="cls-4" x1="74.23" y1="82.54" x2="77.05" y2="82.54"/><line class="cls-4" x1="70.36" y1="86.79" x2="73.18" y2="86.79"/><line class="cls-4" x1="80.82" y1="72.04" x2="86.54" y2="72.04"/><line class="cls-4" x1="86.39" y1="65.25" x2="92.39" y2="65.25"/><line class="cls-4" x1="91.68" y1="59.29" x2="97.68" y2="59.29"/><line class="cls-4" x1="96.68" y1="53.29" x2="102.68" y2="53.29"/><line class="cls-4" x1="101.34" y1="47.29" x2="107.34" y2="47.29"/></svg>