<svg id="Layer_1" data-name="Layer 1" xmlns="http://www.w3.org/2000/svg" xmlns:xlink="http://www.w3.org/1999/xlink" viewBox="0 0 104.51 104.51"><defs><style>.cls-1,.cls-3{fill:none;}.cls-2{clip-path:url(#clip-path);}.cls-3{stroke:#000;stroke-linecap:round;stroke-linejoin:round;stroke-width:1.2px;}</style><clipPath id="clip-path" transform="translate(0 0)"><rect class="cls-1" width="104.5" height="104.5"/></clipPath></defs><title>advantage_icon_3</title><g class="cls-2"><circle class="cls-3" cx="52.25" cy="52.25" r="51.65"/><circle class="cls-3" cx="52.25" cy="52.25" r="37.78"/><line class="cls-3" x1="52.38" y1="0.6" x2="52.38" y2="7.17"/><line class="cls-3" x1="58.35" y1="0.95" x2="57.33" y2="7.44"/><line class="cls-3" x1="63.7" y1="1.83" x2="61.93" y2="8.47"/><line class="cls-3" x1="69.59" y1="3.88" x2="67.21" y2="9.86"/><line class="cls-3" x1="75.01" y1="6.1" x2="71.77" y2="12.15"/><line class="cls-3" x1="80.14" y1="8.86" x2="76.33" y2="14.57"/><line class="cls-3" x1="90.19" y1="17.16" x2="85.19" y2="21.41"/><line class="cls-3" x1="93.82" y1="22.81" x2="88.22" y2="26.25"/><line class="cls-3" x1="84.84" y1="12.18" x2="80.93" y2="17.46"/><line class="cls-3" x1="97.31" y1="28.59" x2="91.11" y2="31.54"/><line class="cls-3" x1="99.56" y1="34.4" x2="93.48" y2="36.47"/><line class="cls-3" x1="101.4" y1="39.96" x2="94.69" y2="41.42"/><line class="cls-3" x1="102.76" y1="46.29" x2="95.95" y2="47.15"/><circle class="cls-3" cx="52.25" cy="52.25" r="3.34"/><line class="cls-3" x1="52.38" y1="103.05" x2="52.38" y2="96.48"/><line class="cls-3" x1="96.72" y1="51.6" x2="103.59" y2="51.6"/><line class="cls-3" x1="58.35" y1="102.7" x2="57.33" y2="96.21"/><line class="cls-3" x1="63.7" y1="101.81" x2="61.93" y2="95.18"/><line class="cls-3" x1="69.59" y1="99.77" x2="67.21" y2="93.79"/><line class="cls-3" x1="75.01" y1="97.55" x2="71.77" y2="91.5"/><line class="cls-3" x1="80.14" y1="94.79" x2="76.33" y2="89.08"/><line class="cls-3" x1="90.19" y1="86.49" x2="85.19" y2="82.24"/><line class="cls-3" x1="93.82" y1="80.83" x2="88.22" y2="77.39"/><line class="cls-3" x1="84.84" y1="91.47" x2="80.93" y2="86.19"/><line class="cls-3" x1="97.31" y1="75.06" x2="91.11" y2="72.11"/><line class="cls-3" x1="99.56" y1="69.25" x2="93.48" y2="67.18"/><line class="cls-3" x1="101.4" y1="63.68" x2="94.69" y2="62.22"/><line class="cls-3" x1="102.76" y1="57.36" x2="95.95" y2="56.5"/><path class="cls-3" d="M49.79,50s-5.71-13,3-24.59c0,0,8,11.48,1.91,24.59" transform="translate(0 0)"/><line class="cls-3" x1="53.79" y1="31.34" x2="55.59" y2="31.34"/><line class="cls-3" x1="53.79" y1="34.17" x2="55.59" y2="34.17"/><line class="cls-3" x1="53.79" y1="36.67" x2="56.81" y2="36.67"/><line class="cls-3" x1="53.79" y1="39" x2="56.81" y2="39"/><line class="cls-3" x1="53.79" y1="41.5" x2="56.81" y2="41.5"/><line class="cls-3" x1="54.07" y1="44" x2="56.62" y2="44"/><line class="cls-3" x1="54.24" y1="46.72" x2="55.3" y2="46.72"/><path class="cls-3" d="M56,51.8s14,2.4,18.87,16c0,0-14,.37-21.59-11.92" transform="translate(0 0)"/><line class="cls-3" x1="69.35" y1="65.41" x2="68.36" y2="66.91"/><line class="cls-3" x1="66.99" y1="63.85" x2="66" y2="65.35"/><line class="cls-3" x1="64.9" y1="62.48" x2="63.24" y2="65"/><line class="cls-3" x1="62.95" y1="61.19" x2="61.29" y2="63.72"/><line class="cls-3" x1="60.86" y1="59.82" x2="59.2" y2="62.34"/><line class="cls-3" x1="58.62" y1="58.68" x2="57.22" y2="60.8"/><line class="cls-3" x1="56.26" y1="57.32" x2="55.67" y2="58.21"/></g></svg>