<?xml version="1.0" encoding="utf-8"?>
<!-- Generator: Adobe Illustrator 21.0.2, SVG Export Plug-In . SVG Version: 6.00 Build 0)  -->
<svg version="1.1" id="Layer_1" xmlns="http://www.w3.org/2000/svg" xmlns:xlink="http://www.w3.org/1999/xlink" x="0px" y="0px"
	 viewBox="0 0 1247.9 269.1" style="enable-background:new 0 0 1247.9 269.1;" xml:space="preserve">
<style type="text/css">
	.st0{clip-path:url(#SVGID_2_);}
	.st1{fill:#FF6600;}
	.st2{fill:#58595B;}
	.st3{clip-path:url(#SVGID_4_);}
</style>
<title>logo</title>
<g>
	<g>
		<defs>
			<rect id="SVGID_1_" width="1247.9" height="269.1"/>
		</defs>
		<clipPath id="SVGID_2_">
			<use xlink:href="#SVGID_1_"  style="overflow:visible;"/>
		</clipPath>
		<g class="st0">
			<path class="st1" d="M114,85.7c11,12.3,16.4,30.4,16.4,54.2c0,25.1-5.4,44.3-16.1,57.4C103.7,210.5,89.9,217,73,217
				c-10.8,0-19.7-2.8-26.8-8.5c-3.9-3.1-7.7-7.7-11.4-13.7v74.3H0V70.4h33.7v21.1C36.9,85.9,41,81,45.8,76.8
				c7.9-6.4,17.2-9.6,28-9.6C89.6,67.2,103,73.4,114,85.7 M87,112.5c-4.8-8.5-12.5-12.7-23.2-12.7c-12.9,0-21.7,6.4-26.5,19.2
				c-2.5,6.8-3.7,15.4-3.7,25.9c0,16.6,4.2,28.2,12.6,34.9c5,3.9,11.3,6,17.7,5.9c9.9,0,17.4-4,22.6-12c5.2-8,7.8-18.7,7.8-32.1
				C94.2,130.7,91.8,121,87,112.5"/>
			<path class="st1" d="M262.6,185.2c-7,16.8-20.9,27.6-41.9,32.4s-38.2,1.1-51.8-11.1c-13.6-12.1-22.7-28.4-27.3-48.8
				c-4.6-20.1-3.4-38.6,3.5-55.6s20.9-27.9,41.8-32.7c21-4.8,38.2-1,51.9,11.4c13.6,12.4,22.7,28.6,27.3,48.6
				C270.7,149.7,269.6,168.3,262.6,185.2 M232.5,170.9c3.3-8.7,3.3-20,0.2-33.9c-3.2-13.9-8.1-24.1-14.8-30.5s-14.7-8.5-24-6.4
				s-15.6,7.5-19,16.2s-3.4,20-0.2,33.9c3.2,13.9,8.1,24.1,14.9,30.5c6.8,6.4,14.8,8.6,24.1,6.4C222.9,185,229.2,179.6,232.5,170.9"
				/>
			<path class="st1" d="M392.2,85.7c11,12.3,16.4,30.4,16.4,54.2c0,25.1-5.4,44.3-16.1,57.4C381.8,210.5,368,217,351.1,217
				c-10.8,0-19.7-2.8-26.8-8.5c-3.9-3.1-7.7-7.7-11.4-13.7v74.3h-34.8V70.4h33.7v21.1C315,86,319.1,81,324,76.8
				c7.9-6.4,17.2-9.6,28-9.6C367.9,67.2,381.2,73.4,392.2,85.7 M365.2,112.5c-4.7-8.5-12.5-12.7-23.2-12.7
				c-12.9,0-21.7,6.4-26.5,19.2c-2.5,6.8-3.7,15.4-3.7,25.9c0,16.6,4.2,28.2,12.6,34.9c5,4,11.3,6,17.7,5.9c9.9,0,17.4-4,22.6-12
				s7.8-18.7,7.8-32.1C372.4,130.7,370,121,365.2,112.5"/>
			<path class="st2" d="M494.6,214.2c-10.9,0-20.3-2-28.4-5.9c-7.7-3.7-14.5-9.2-19.7-16.1c-5.3-7-9.1-15-11.4-23.4
				c-2.5-9.2-3.8-18.7-3.7-28.3c0-22.8,5.7-40.9,17-54.2s26.6-20,45.7-20c11.8,0,23.3,3.1,33.4,9.1c5.5,3.1,10.3,7.3,14,12.4
				c4.3,6.2,7.8,12.9,10.3,20l-32.5,12.6c-1.2-3-2.5-5.8-4-8.4c-1.3-2.5-3-4.8-5-6.8c-1.9-1.9-4.2-3.5-6.7-4.6
				c-3-1.2-6.1-1.8-9.4-1.7c-8.6,0-14.7,3.3-18.2,9.9c-4,6.9-6.1,17.4-6,31.4c0,13.9,2,24.3,6,31.4c3.7,6.6,9.9,9.9,18.7,9.9
				c3.3,0.1,6.6-0.6,9.6-2c2.7-1.3,5.2-3,7.4-5.1c2.2-2.2,4.2-4.6,5.9-7.2c1.8-2.7,3.5-5.6,5.3-8.6l29.7,16.8
				c-3.6,6.7-7.9,13-12.6,18.9c-3.6,4.4-7.9,8.3-12.6,11.5C518.9,211.4,507.9,214.2,494.6,214.2"/>
			<path class="st2" d="M611.7,115.8c-5.4,4.4-9,8.5-10.8,12.4v86.1h-38.7V71.6h36v16.3c4.8-7,10.4-11.9,16.8-14.7
				c7-2.9,14.6-4.4,22.2-4.2v40.5l-7.9-0.5C623.5,108.8,617.7,111.1,611.7,115.8"/>
			<path class="st2" d="M697.2,214.2c-10.7,0-19.9-2.1-27.6-6.2c-7.5-3.9-14-9.6-19-16.4c-5-7.1-8.7-15.1-10.9-23.6
				c-2.4-9.1-3.6-18.4-3.5-27.8c0-9.5,1.2-19,3.5-28.2c2.2-8.5,6-16.5,11.2-23.5c5.1-6.8,11.7-12.3,19.3-16.2c7.8-4,17.1-6.1,28-6.1
				c16.7,0,30.4,6.1,41.3,18.2c5.3,6,9.6,12.9,12.8,20.3c3.3,8,5,16.6,4.9,25.3v18.4h-82.6c0.5,4.1,1.2,8.2,2,12.2
				c0.7,3.7,2,7.3,4,10.6c1.8,3.1,4.4,5.7,7.5,7.5c3.2,1.9,7.4,2.9,12.6,2.9c6.7,0,12.2-1.6,16.7-4.9c4.8-3.5,9-7.7,12.5-12.5
				l28.4,17.9c-3.6,5.7-7.9,11-12.8,15.6c-4.1,3.9-8.7,7.1-13.8,9.5C722.4,212,710.9,214.3,697.2,214.2 M698,96.3
				c-3.5-0.1-6.9,0.5-10.1,1.8c-2.6,1.1-4.9,2.9-6.7,5.1c-1.8,2.3-3.2,4.9-4.1,7.8c-1,3.1-1.7,6.3-2.2,9.5h46.3
				c-0.5-7.2-2.7-13-6.6-17.4C710.5,98.6,705,96.3,698,96.3"/>
			<path class="st2" d="M840.3,203.2c-6.1,3.9-12.7,7.1-19.7,9.3c-7,2.1-14.2,3.1-21.5,3c-5.5,0.1-10.9-0.9-16-2.9
				c-9.4-3.7-16.9-11.1-20.7-20.5c-2-5-3-10.4-2.9-15.8c0-14.6,5.3-26.2,15.8-35c7.2-5.8,15.5-10.2,24.3-12.9s17.7-4.9,26.7-6.6
				c3.8-0.8,7.7-1.3,11.6-1.6V112c0-5.1-1.7-8.8-5-11.1c-3.6-2.4-7.8-3.5-12.1-3.4c-7.2,0-12.9,1.6-17.2,4.9
				c-4.7,3.7-8.8,8.2-12,13.3l-25.7-19.5c6.1-9.8,14-17.1,23.6-21.7c9.8-4.7,20.6-7.1,31.5-7c20.1,0,34.4,4.7,43,14.1
				s12.9,23.9,12.9,43.6v67.4c-0.1,3.9,0.3,7.8,1,11.6c0.3,1.1-0.1,2-1.3,2.9v5.8h-34.3L840.3,203.2z M823.6,150.4
				c-4.5,0.9-8.8,2.3-13,4.1c-3.9,1.6-7.5,4-10.5,7c-2.9,3-4.5,7-4.3,11.2c-0.2,3.4,1,6.8,3.3,9.3c2.2,2.4,5.3,3.6,9.3,3.6
				c5.2-0.1,10.2-1.6,14.6-4.3c4.5-2.5,8.7-5.4,12.8-8.6v-24.8C832.2,148.6,828.2,149.4,823.6,150.4"/>
			<path class="st2" d="M940.4,214.1c-2.6,0.1-5.5,0.1-8.7,0.1c-11.1,0-20-2.8-26.5-8.3s-9.8-14-9.8-25.6v-78.9h-19V68.9h19V23.7
				h38.7V69H961v32.6h-26.9v74c0,3,0.8,4.8,2.4,5.5c2,0.8,4.2,1.1,6.3,1c2.9,0,5.8-0.3,8.7-1.1l9.5-2.3v32.9
				c-2.5,0.6-5.1,1.1-7.6,1.4c-2.1,0.3-4.1,0.5-6.1,0.7C945.4,213.9,943.1,214,940.4,214.1"/>
			<rect x="970.7" y="71.6" class="st2" width="38.7" height="142.7"/>
			<polygon class="st2" points="1054.7,214.2 1014.9,71.6 1053.6,71.6 1074.2,156.1 1095.2,71.6 1134.2,71.6 1093.1,214.2 			"/>
			<path class="st2" d="M1186.8,214.2c-10.7,0-19.9-2.1-27.6-6.2c-7.5-3.9-14-9.6-19-16.4c-5-7.1-8.7-15.1-10.9-23.6
				c-2.4-9.1-3.6-18.4-3.6-27.8c0-9.5,1.2-19,3.6-28.2c2.2-8.5,6-16.5,11.2-23.6c5.1-6.8,11.7-12.3,19.3-16.2c7.8-4,17.1-6.1,28-6.1
				c16.7,0,30.4,6.1,41.3,18.2c5.3,6,9.7,12.9,12.9,20.3c3.3,8,5,16.6,4.9,25.3v18.4h-82.7c0.5,4.1,1.2,8.2,2,12.2
				c0.7,3.7,2,7.3,3.9,10.6c1.8,3.1,4.4,5.7,7.5,7.5c3.2,1.9,7.4,2.9,12.6,2.9c6.7,0,12.2-1.6,16.7-4.9c4.8-3.5,9-7.7,12.5-12.5
				l28.4,17.9c-3.6,5.7-7.9,11-12.8,15.6c-4.1,3.9-8.7,7.1-13.8,9.5C1212,212,1200.5,214.3,1186.8,214.2 M1187.7,96.4
				c-3.5-0.1-6.9,0.5-10.1,1.8c-2.6,1.1-4.9,2.9-6.7,5.1c-1.8,2.3-3.2,4.9-4.1,7.8c-1,3.1-1.7,6.3-2.2,9.5h46.3
				c-0.5-7.2-2.7-13-6.6-17.4C1200.2,98.7,1194.7,96.4,1187.7,96.4"/>
			<path class="st1" d="M1010.7,19.3c0.3,10.9-8.8,20-20.3,20.3s-20.9-8.4-21.1-19.3s8.8-20,20.2-20.3S1010.4,8.4,1010.7,19.3"/>
		</g>
	</g>
	<g>
		<defs>
			<rect id="SVGID_3_" width="1247.9" height="269.1"/>
		</defs>
		<clipPath id="SVGID_4_">
			<use xlink:href="#SVGID_3_"  style="overflow:visible;"/>
		</clipPath>
		<g class="st3">
			
				<image style="overflow:visible;enable-background:new    ;" width="262" height="53" xlink:href="C:\Users\Jayvirsinh Jadeja\Desktop\Untitled-5.png"  transform="matrix(4.7526 0 0 4.7526 2.5398 269.11)">
			</image>
		</g>
	</g>
</g>
</svg>
